<svg width="35" height="35" viewBox="0 0 35 35" fill="none" xmlns="http://www.w3.org/2000/svg">
<g clip-path="url(#clip0_26_43)">
<path d="M25.6862 22.627C27.8044 19.7367 28.7531 16.1531 28.3425 12.5933C27.932 9.0335 26.1925 5.75998 23.472 3.42764C20.7515 1.09531 17.2507 -0.123819 13.6699 0.0141538C10.0892 0.152126 6.69259 1.63703 4.15964 4.17178C1.6267 6.70654 0.144232 10.1042 0.00882152 13.6851C-0.126589 17.2659 1.09505 20.7658 3.42933 23.4846C5.7636 26.2035 9.03837 27.9406 12.5985 28.3486C16.1586 28.7566 19.7415 27.8054 22.6303 25.6852H22.6281C22.6937 25.7727 22.6303 25.6852 25.0009 27.9992L26.0009 28.9992L31.2644 34.3586C31.6745 34.7691 32.231 34.9998 32.8112 35C33.3915 35.0002 33.9481 34.7699 34.3586 34.3597C34.7691 33.9495 34.9998 33.3931 35 32.8128C35.0002 32.2325 34.7699 31.6759 34.3597 31.2655L28.6751 25.6852L28.0009 24.9992C26.5991 25.2018 25.4565 26.227 25.1038 27.5987L25.0009 27.9992L22.6281 25.6852C23.8607 24.9048 24.9057 23.8595 25.6862 22.627ZM26.2506 14.2183C26.2506 15.7983 25.9394 17.3628 25.3348 18.8225C24.7302 20.2822 23.844 21.6085 22.7267 22.7257C21.6095 23.8429 20.2832 24.7291 18.8235 25.3337C17.3638 25.9384 15.7993 26.2495 14.2194 26.2495C12.6394 26.2495 11.0749 25.9384 9.61521 25.3337C8.15551 24.7291 6.8292 23.8429 5.71199 22.7257C4.59479 21.6085 3.70857 20.2822 3.10395 18.8225C2.49932 17.3628 2.18812 15.7983 2.18812 14.2183C2.18812 11.0274 3.4557 7.96722 5.71199 5.71092C7.96829 3.45462 11.0285 2.18705 14.2194 2.18705C17.4103 2.18705 20.4705 3.45462 22.7267 5.71092C24.983 7.96722 26.2506 11.0274 26.2506 14.2183Z" fill="black"/>
<rect x="23" y="27" width="2" height="1" fill="#D9D9D9"/>
<rect x="23" y="27" width="2" height="1" fill="#D9D9D9"/>
<circle cx="18.5" cy="6.5" r="1.5" fill="#707070"/>
</g>
<defs>
<clipPath id="clip0_26_43">
<rect width="35" height="35" fill="white"/>
</clipPath>
</defs>
</svg>
