<svg width="39" height="36" viewBox="0 0 39 36" fill="none" xmlns="http://www.w3.org/2000/svg">
<path fill-rule="evenodd" clip-rule="evenodd" d="M3.88954 31.8621L3.88953 21.296C3.88953 20.5802 4.46975 20 5.18549 20C5.90124 20 6.48146 20.5802 6.48146 21.296L6.48147 31.8621C6.48147 32.2058 6.61801 32.5354 6.86105 32.7784C7.10409 33.0215 7.43373 33.158 7.77744 33.158H31.1048C31.4485 33.158 31.7782 33.0215 32.0212 32.7784C32.2643 32.5354 32.4008 32.2058 32.4008 31.8621V21.296C32.4008 20.5802 32.981 20 33.6968 20C34.4125 20 34.9927 20.5802 34.9927 21.296V31.8621C34.9927 32.8932 34.5831 33.8821 33.854 34.6112C33.1249 35.3403 32.136 35.75 31.1048 35.75H7.77744C6.7463 35.75 5.7574 35.3403 5.02828 34.6112C4.29916 33.8821 3.88954 32.8932 3.88954 31.8621ZM32.4008 3.35081V5.65763C32.4008 6.93193 30.7962 7.49493 30 6.5L27.8909 4.11348C27.4566 3.62205 27.1328 2.89817 27.5965 2.43442C27.8395 2.19138 28.1692 2.05484 28.5129 2.05484H31.1048C31.4485 2.05484 31.7782 2.19138 32.0212 2.43442C32.2643 2.67746 32.4008 3.00709 32.4008 3.35081Z" fill="black"/>
<path fill-rule="evenodd" clip-rule="evenodd" d="M17.6086 0.758883C18.0947 0.27297 18.7538 0 19.4411 0C20.1284 0 20.7876 0.27297 21.2736 0.758883L38.5022 17.9849C38.7455 18.2282 38.8823 18.5583 38.8823 18.9024C38.8823 19.2466 38.7455 19.5766 38.5022 19.82C38.2588 20.0633 37.9288 20.2 37.5846 20.2C37.2405 20.2 36.9104 20.0633 36.6671 19.82L19.4411 2.59138L2.21515 19.82C1.9718 20.0633 1.64175 20.2 1.2976 20.2C0.953457 20.2 0.623407 20.0633 0.380059 19.82C0.136711 19.5766 0 19.2466 0 18.9024C0 18.5583 0.136711 18.2282 0.380059 17.9849L17.6086 0.758883Z" fill="black"/>
</svg>
